<svg width="48" height="48" viewBox="0 0 48 48" fill="none" xmlns="http://www.w3.org/2000/svg">
<path fill-rule="evenodd" clip-rule="evenodd" d="M24 48C37.2548 48 48 37.2548 48 24C48 10.7452 37.2548 0 24 0C10.7452 0 0 10.7452 0 24C0 37.2548 10.7452 48 24 48ZM21.25 11.245C21.25 9.724 22.479 8.475 23.99 8.475C24.5215 8.47874 25.0406 8.63586 25.4849 8.92748C25.9293 9.2191 26.28 9.63282 26.4949 10.1189C26.7098 10.605 26.7798 11.1429 26.6964 11.6678C26.6131 12.1927 26.3799 12.6824 26.025 13.078C27.71 13.386 29 14.817 29 16.55V18.5C29 18.6326 28.9473 18.7598 28.8536 18.8536C28.7598 18.9473 28.6326 19 28.5 19H19.5C19.3674 19 19.2402 18.9473 19.1464 18.8536C19.0527 18.7598 19 18.6326 19 18.5V16.55C19 14.822 20.281 13.394 21.957 13.08C21.522 12.589 21.25 11.95 21.25 11.245ZM25.732 11.245C25.732 10.258 24.955 9.475 23.99 9.475V9.474C23.026 9.474 22.25 10.258 22.25 11.244C22.25 12.231 23.026 13.014 23.99 13.014C24.955 13.014 25.732 12.231 25.732 11.245ZM27.143 11.443L27.393 10.475L27.842 10.59L27.889 10.605L29.037 11.025L29.082 11.045L29.365 11.18L28.93 12.082L28.674 11.957L27.561 11.551L27.143 11.443ZM19.699 10.742L20.217 10.59L20.51 11.545L20.004 11.699H19.992L19.152 12.034L18.725 12.244L18.285 11.346L18.73 11.127L18.768 11.111L19.662 10.756L19.699 10.742ZM29.783 12.5L30.303 11.648L31.248 12.223L31.289 12.246L32.004 12.784L31.406 13.584L30.715 13.066L29.783 12.5ZM17.018 12.045L17.373 11.836L17.879 12.696L17.539 12.896L17.523 12.908L16.791 13.418L16.31 13.809L15.68 13.033L16.175 12.631L16.205 12.607L16.984 12.066L17.018 12.045ZM32.127 14.203L32.801 13.465L33.176 13.807L33.209 13.84L34.016 14.725L34.047 14.762L34.223 14.996L33.42 15.596L33.266 15.389L32.484 14.527L32.127 14.203ZM14.9105 13.7325L14.911 13.732H14.91L14.9105 13.7325ZM14.725 13.904L14.9105 13.7325L15.598 14.457L15.44 14.607L15.43 14.617L14.807 15.304H14.803L14.336 15.904L13.547 15.291L14.037 14.661L14.063 14.631L14.699 13.932L14.725 13.904ZM28 16.551C28 15.147 26.836 14.014 25.35 14.014H22.651C21.165 14.014 20 15.147 20 16.55V18H20.998V16.447C20.998 16.3144 21.0507 16.1872 21.1444 16.0934C21.2382 15.9997 21.3654 15.947 21.498 15.947C21.6306 15.947 21.7578 15.9997 21.8516 16.0934C21.9453 16.1872 21.998 16.3144 21.998 16.447V18H25.998V16.447C25.998 16.3144 26.0507 16.1872 26.1444 16.0934C26.2382 15.9997 26.3654 15.947 26.498 15.947C26.6306 15.947 26.7578 15.9997 26.8516 16.0934C26.9453 16.1872 26.998 16.3144 26.998 16.447V18H28V16.551ZM33.986 16.362L34.84 15.842L35.418 16.795L35.441 16.838L35.826 17.635L34.926 18.07L34.551 17.293L33.986 16.362ZM12.908 16.23L12.963 16.145L13.796 16.699L13.746 16.773L13.74 16.783L13.303 17.57L13.294 17.584L12.914 18.409L12.008 17.989L12.404 17.129L12.422 17.096L12.888 16.264L12.908 16.23ZM36.2181 18.6073L36.219 18.607H36.218L36.2181 18.6073ZM36.2181 18.6073L35.279 18.951L35.457 19.434L35.756 20.594L35.783 20.779L36.773 20.629L36.74 20.418L36.73 20.369L36.422 19.172L36.408 19.123L36.2181 18.6073ZM11.373 19.912L11.633 19L12.594 19.275L12.34 20.164L12.156 21.074L12.148 21.139L11.154 21.02L11.162 20.954L11.17 20.914L11.363 19.949L11.373 19.912ZM23.8012 20.0101C23.8619 19.9841 23.927 19.9705 23.993 19.97C24.06 19.9689 24.1256 19.9813 24.1877 20.0065C24.2498 20.0316 24.3062 20.069 24.3536 20.1164C24.401 20.1638 24.4384 20.2202 24.4635 20.2823C24.4887 20.3444 24.5011 20.411 24.5 20.478V24.22L28.773 27.096C29.316 27.47 28.766 28.288 28.215 27.926L24.012 25.098L19.783 27.926C19.219 28.354 18.617 27.453 19.229 27.096L23.5 24.239V20.479C23.4984 20.4131 23.51 20.3475 23.534 20.286C23.558 20.2246 23.594 20.1686 23.6399 20.1212C23.6857 20.0738 23.7406 20.0361 23.8012 20.0101ZM36.012 21.756L36.923 21.613L36.93 21.655L36.936 21.705L37 22.984L36.5 23.01L37 23.033L36.939 24.232L35.939 24.182L35.998 23.008L35.936 21.768V21.756H36.012ZM11 22.993L11.037 22.053L12.037 22.094L12.002 23.008L12.053 24.045L11.055 24.096L11 23.037V22.993ZM11.187 25.137L12.176 24.988L12.244 25.432L12.543 26.592L12.631 26.83L11.692 27.174L11.592 26.904L11.578 26.854L11.27 25.658L11.26 25.607L11.187 25.137ZM35.756 25.43L35.803 25.125L36.791 25.275L36.74 25.607L36.73 25.656L36.422 26.853L36.408 26.903L36.26 27.303L35.322 26.959L35.457 26.592L35.756 25.43ZM13.4976 26.9279C13.9419 26.6362 14.461 26.4789 14.9925 26.475C15.5238 26.4788 16.0427 26.636 16.4869 26.9275C16.9313 27.2191 17.282 27.6328 17.4969 28.1189C17.7118 28.605 17.7818 29.1429 17.6984 29.6678C17.6151 30.1927 17.3819 30.6824 17.027 31.078C18.712 31.386 20.002 32.817 20.002 34.55V36.5C20.002 36.6326 19.9493 36.7598 19.8556 36.8536C19.7618 36.9473 19.6346 37 19.502 37H10.5C10.3674 37 10.2402 36.9473 10.1464 36.8536C10.0527 36.7598 10 36.6326 10 36.5V34.55C10 32.822 11.282 31.394 12.96 31.08C12.6046 30.6846 12.3709 30.1949 12.2871 29.6698C12.2033 29.1447 12.273 28.6067 12.4877 28.1202C12.7025 27.6338 13.0532 27.2198 13.4976 26.9279ZM14.9925 26.475C14.9927 26.475 14.9928 26.475 14.993 26.475H14.992C14.9922 26.475 14.9923 26.475 14.9925 26.475ZM31.4946 26.9279C31.939 26.6361 32.4583 26.4788 32.99 26.475C33.5215 26.4787 34.0406 26.6359 34.4849 26.9275C34.9293 27.2191 35.28 27.6328 35.4949 28.1189C35.7098 28.605 35.7798 29.1429 35.6964 29.6678C35.6131 30.1927 35.3799 30.6824 35.025 31.078C36.71 31.386 38 32.817 38 34.55V36.5C38 36.6326 37.9473 36.7598 37.8536 36.8536C37.7598 36.9473 37.6326 37 37.5 37H28.498C28.3654 37 28.2382 36.9473 28.1444 36.8536C28.0507 36.7598 27.998 36.6326 27.998 36.5V34.55C27.998 32.822 29.28 31.394 30.957 31.08C30.6016 30.6846 30.3679 30.1949 30.2841 29.6698C30.2003 29.1447 30.27 28.6067 30.4847 28.1202C30.6995 27.6338 31.0502 27.2198 31.4946 26.9279ZM16.734 29.245C16.734 28.258 15.957 27.475 14.992 27.475C14.028 27.475 13.25 28.258 13.25 29.244C13.2472 29.4749 13.2902 29.704 13.3764 29.9181C13.4626 30.1323 13.5904 30.3273 13.7523 30.4918C13.9143 30.6564 14.1072 30.7872 14.32 30.8769C14.5327 30.9665 14.7611 31.0131 14.992 31.014C15.957 31.014 16.734 30.231 16.734 29.245ZM34.732 29.245C34.732 28.258 33.955 27.475 32.99 27.475C32.026 27.475 31.248 28.258 31.248 29.244C31.2452 29.4749 31.2882 29.704 31.3744 29.9181C31.4606 30.1323 31.5884 30.3273 31.7503 30.4918C31.9123 30.6564 32.1052 30.7872 32.318 30.8769C32.5307 30.9665 32.7591 31.0131 32.99 31.014C33.955 31.014 34.732 30.231 34.732 29.245ZM16.352 32.014H13.65C12.164 32.014 11 33.147 11 34.55V36H12V34.447C12 34.3144 12.0527 34.1872 12.1464 34.0934C12.2402 33.9997 12.3674 33.947 12.5 33.947C12.6326 33.947 12.7598 33.9997 12.8536 34.0934C12.9473 34.1872 13 34.3144 13 34.447V36H17V34.447C17 34.3144 17.0527 34.1872 17.1464 34.0934C17.2402 33.9997 17.3674 33.947 17.5 33.947C17.6326 33.947 17.7598 33.9997 17.8536 34.0934C17.9473 34.1872 18 34.3144 18 34.447V36H19.002V34.551C19.002 33.147 17.838 32.014 16.352 32.014ZM34.35 32.014H31.648C30.162 32.014 28.998 33.147 28.998 34.55V36H29.998V34.447C29.998 34.3144 30.0507 34.1872 30.1444 34.0934C30.2382 33.9997 30.3654 33.947 30.498 33.947C30.6306 33.947 30.7578 33.9997 30.8516 34.0934C30.9453 34.1872 30.998 34.3144 30.998 34.447V36H34.998V34.447C34.998 34.3144 35.0507 34.1872 35.1444 34.0934C35.2382 33.9997 35.3654 33.947 35.498 33.947C35.6306 33.947 35.7578 33.9997 35.8516 34.0934C35.9453 34.1872 35.998 34.3144 35.998 34.447V36H37V34.551C37 33.147 35.836 32.014 34.35 32.014ZM20.24 34.861L20.418 33.873L21.127 34.078L22.037 34.263L22.102 34.273L21.98 35.268L21.915 35.258L21.875 35.248L20.91 35.053L20.873 35.043L20.24 34.861ZM26.393 34.182L27.555 33.887L27.866 34.838L27.816 34.852L26.618 35.158L26.568 35.168L26.098 35.24L25.949 34.25L26.393 34.182ZM23.971 34.42L25.008 34.371L25.057 35.369L23.998 35.422H23.954L23.014 35.383L23.057 34.383L23.971 34.42ZM46.5 24C46.5 36.4264 36.4264 46.5 24 46.5C11.5736 46.5 1.5 36.4264 1.5 24C1.5 11.5736 11.5736 1.5 24 1.5C36.4264 1.5 46.5 11.5736 46.5 24Z" fill="white"/>
</svg>
