<svg width="48" height="48" viewBox="0 0 48 48" fill="none" xmlns="http://www.w3.org/2000/svg">
<circle cx="24" cy="24" r="23.25" stroke="white" stroke-width="1.5"/>
<path d="M13.1081 28.3543C13.1081 28.2291 13.0584 28.1091 12.9699 28.0206C12.8814 27.9322 12.7614 27.8825 12.6363 27.8825H8.35909C8.23396 27.8825 8.11395 27.9322 8.02547 28.0206C7.93698 28.1091 7.88727 28.2291 7.88727 28.3543C7.88727 28.4794 7.93698 28.5994 8.02547 28.6879C8.11395 28.7764 8.23396 28.8261 8.35909 28.8261H12.6363C12.7614 28.8261 12.8814 28.7764 12.9699 28.6879C13.0584 28.5994 13.1081 28.4794 13.1081 28.3543ZM8.35909 23.1643H13.0832C13.2083 23.1643 13.3283 23.1145 13.4168 23.0261C13.5053 22.9376 13.555 22.8176 13.555 22.6924C13.555 22.5673 13.5053 22.4473 13.4168 22.3588C13.3283 22.2703 13.2083 22.2206 13.0832 22.2206H8.35909C8.23396 22.2206 8.11395 22.2703 8.02547 22.3588C7.93698 22.4473 7.88727 22.5673 7.88727 22.6924C7.88727 22.8176 7.93698 22.9376 8.02547 23.0261C8.11395 23.1145 8.23396 23.1643 8.35909 23.1643ZM13.1081 25.5234C13.1081 25.3982 13.0584 25.2782 12.9699 25.1897C12.8814 25.1012 12.7614 25.0515 12.6363 25.0515H6.47182C6.34668 25.0515 6.22668 25.1012 6.13819 25.1897C6.04971 25.2782 6 25.3982 6 25.5234C6 25.6485 6.04971 25.7685 6.13819 25.857C6.22668 25.9455 6.34668 25.9952 6.47182 25.9952H12.6363C12.7614 25.9952 12.8814 25.9455 12.9699 25.857C13.0584 25.7685 13.1081 25.6485 13.1081 25.5234ZM9.30273 20.3333H14.0214C14.1466 20.3333 14.2666 20.2836 14.355 20.1952C14.4435 20.1067 14.4932 19.9867 14.4932 19.8615C14.4932 19.7364 14.4435 19.6164 14.355 19.5279C14.2666 19.4394 14.1466 19.3897 14.0214 19.3897H9.30273C9.17759 19.3897 9.05759 19.4394 8.9691 19.5279C8.88062 19.6164 8.83091 19.7364 8.83091 19.8615C8.83091 19.9867 8.88062 20.1067 8.9691 20.1952C9.05759 20.2836 9.17759 20.3333 9.30273 20.3333ZM34.6913 17.4949C34.4986 17.3021 34.3004 17.1169 34.0968 16.9394L34.7917 15.776L34.8716 15.8238V15.8237C34.9957 15.8983 35.1378 15.9378 35.2826 15.9379C35.3494 15.9378 35.4159 15.9295 35.4806 15.9131C35.5831 15.8876 35.6796 15.8419 35.7643 15.7789C35.8491 15.7158 35.9205 15.6366 35.9744 15.5457L36.6559 14.4045C36.7101 14.3138 36.7459 14.2134 36.7612 14.1089C36.7765 14.0044 36.7711 13.8979 36.7453 13.7955C36.7195 13.6931 36.6737 13.5968 36.6107 13.512C36.5477 13.4273 36.4685 13.3558 36.3779 13.3017L33.753 11.7341C33.5698 11.625 33.3508 11.593 33.1441 11.6451C32.9373 11.6972 32.7597 11.8292 32.6502 12.0122L31.9688 13.1535C31.9146 13.2441 31.8788 13.3445 31.8635 13.449C31.8481 13.5535 31.8535 13.66 31.8794 13.7624C31.9052 13.8648 31.9509 13.9611 32.014 14.0458C32.077 14.1305 32.1561 14.202 32.2468 14.2561L32.327 14.3041L31.7221 15.3167C30.5563 14.7116 29.2982 14.3039 27.999 14.1102V12.2699H28.3912C28.6925 12.2695 28.9814 12.1497 29.1945 11.9366C29.4075 11.7236 29.5273 11.4347 29.5277 11.1334V10.1365C29.5273 9.83516 29.4075 9.5463 29.1945 9.33325C28.9814 9.1202 28.6925 9.00035 28.3912 9H24.0046C23.7033 9.00035 23.4144 9.1202 23.2014 9.33325C22.9883 9.5463 22.8685 9.83516 22.8681 10.1365V11.1334C22.8685 11.4347 22.9883 11.7236 23.2014 11.9366C23.4144 12.1497 23.7032 12.2695 24.0045 12.2699H24.3968V14.1102C23.0976 14.3039 21.8395 14.7115 20.6737 15.3167L20.0687 14.3041L20.1489 14.2563C20.2396 14.2021 20.3187 14.1306 20.3818 14.0459C20.4448 13.9612 20.4906 13.8649 20.5164 13.7625C20.5422 13.6601 20.5476 13.5536 20.5323 13.4491C20.517 13.3446 20.4812 13.2441 20.4271 13.1535L19.7455 12.0122C19.6359 11.8293 19.4583 11.6973 19.2516 11.6452C19.0449 11.593 18.8259 11.625 18.6428 11.7341L16.0179 13.3018C15.835 13.4113 15.703 13.5889 15.6509 13.7956C15.5987 14.0024 15.6307 14.2213 15.7398 14.4045L16.4214 15.5457C16.4753 15.6366 16.5467 15.7158 16.6315 15.7789C16.7162 15.842 16.8127 15.8876 16.9152 15.9131C16.9799 15.9295 17.0464 15.9378 17.1131 15.9379C17.2579 15.9377 17.4 15.8983 17.5241 15.8237V15.8238L17.6041 15.776L18.2989 16.9394C18.0957 17.1173 17.8976 17.3024 17.7044 17.4948C16.0246 19.1747 14.8806 21.3149 14.4171 23.645C13.9536 25.975 14.1915 28.3901 15.1006 30.585C16.0097 32.7798 17.5493 34.6558 19.5246 35.9757C21.4999 37.2955 23.8222 38 26.1979 38C28.5736 38 30.8959 37.2955 32.8712 35.9757C34.8465 34.6558 36.3861 32.7798 37.2952 30.585C38.2043 28.3901 38.4422 25.975 37.9787 23.645C37.5152 21.3149 36.3712 19.1747 34.6913 17.4948V17.4949ZM33.3889 12.6158L35.7743 14.0403L35.2358 14.9421L32.8504 13.5175L33.3889 12.6158ZM33.1371 14.7878L33.9815 15.2921L33.3558 16.3397C33.0914 16.1427 32.8201 15.9576 32.5419 15.7843L33.1371 14.7878ZM24.0046 11.3263C23.9535 11.3262 23.9045 11.3059 23.8683 11.2697C23.8322 11.2336 23.8118 11.1846 23.8118 11.1334V10.1365C23.8118 10.0853 23.8322 10.0364 23.8683 10.0002C23.9044 9.96406 23.9534 9.94372 24.0045 9.94364H28.3912C28.4423 9.94369 28.4913 9.96402 28.5275 10.0002C28.5636 10.0363 28.584 10.0853 28.5841 10.1365V11.1334C28.584 11.1846 28.5637 11.2336 28.5275 11.2697C28.4914 11.3059 28.4424 11.3262 28.3912 11.3263H24.0046ZM27.0554 12.2699V14.0071C26.7714 13.9872 26.4855 13.9771 26.1979 13.9767C25.9104 13.9767 25.6246 13.9869 25.3405 14.0071V12.2699H27.0554ZM19.8538 15.7843C19.576 15.9578 19.3047 16.1429 19.0399 16.3397L18.4143 15.2921L19.2587 14.7878L19.8538 15.7843ZM17.16 14.9421L16.6214 14.0404L19.0068 12.6158L19.5453 13.5175L17.16 14.9421ZM34.0241 33.8145C32.2135 35.6252 29.8311 36.752 27.2828 37.003C24.7345 37.254 22.178 36.6136 20.0489 35.191C17.9199 33.7684 16.3499 31.6516 15.6066 29.2012C14.8633 26.7509 14.9926 24.1186 15.9725 21.7529C16.9524 19.3872 18.7222 17.4344 20.9805 16.2273C23.2387 15.0202 25.8457 14.6335 28.3571 15.1331C30.8685 15.6326 33.129 16.9875 34.7535 18.9669C36.3779 20.9462 37.2658 23.4276 37.2658 25.9883C37.2698 27.4423 36.9853 28.8827 36.4289 30.2261C35.8725 31.5695 35.0551 32.7892 34.0241 33.8145ZM32.5201 19.6661C31.0574 18.2034 29.1328 17.2931 27.0743 17.0903C25.0157 16.8876 22.9505 17.4049 21.2305 18.5541C19.5106 19.7033 18.2424 21.4133 17.6419 23.3928C17.0414 25.3723 17.1459 27.4987 17.9375 29.4098C18.7291 31.3209 20.1588 32.8984 21.9831 33.8735C23.8074 34.8486 25.9133 35.161 27.9421 34.7574C29.9709 34.3539 31.797 33.2594 33.1093 31.6604C34.4216 30.0613 35.1388 28.0568 35.1388 25.9883C35.142 24.8136 34.9122 23.6501 34.4627 22.5649C34.0132 21.4797 33.3529 20.4944 32.5201 19.6661ZM32.1681 31.309L31.7076 30.8485C31.6191 30.76 31.4991 30.7103 31.374 30.7103C31.2488 30.7103 31.1288 30.76 31.0403 30.8485C30.9518 30.937 30.9021 31.057 30.9021 31.1822C30.9021 31.3073 30.9519 31.4273 31.0403 31.5158L31.4997 31.9752C30.1616 33.1673 28.459 33.871 26.6697 33.9714V33.3262C26.6697 33.201 26.62 33.081 26.5315 32.9925C26.443 32.9041 26.323 32.8544 26.1979 32.8544C26.0727 32.8544 25.9527 32.9041 25.8642 32.9925C25.7757 33.081 25.726 33.201 25.726 33.3262V33.9714C23.9306 33.8706 22.2228 33.1625 20.8828 31.9634L21.3303 31.5158C21.4188 31.4273 21.4685 31.3073 21.4685 31.1822C21.4685 31.057 21.4188 30.937 21.3304 30.8485C21.2419 30.76 21.1219 30.7103 20.9967 30.7103C20.8716 30.7103 20.7515 30.76 20.663 30.8485L20.216 31.2957C19.0209 29.9567 18.3154 28.252 18.2148 26.4601H18.8601C18.9852 26.4601 19.1052 26.4104 19.1937 26.3219C19.2822 26.2334 19.3319 26.1134 19.3319 25.9883C19.3319 25.8631 19.2822 25.7431 19.1937 25.6546C19.1052 25.5661 18.9852 25.5164 18.8601 25.5164H18.2149C18.3153 23.7271 19.0189 22.0246 20.211 20.6865L20.663 21.1385C20.7069 21.1823 20.7589 21.2171 20.8161 21.2408C20.8734 21.2645 20.9347 21.2767 20.9967 21.2767C21.0587 21.2767 21.12 21.2645 21.1773 21.2408C21.2345 21.2171 21.2865 21.1823 21.3304 21.1385C21.3742 21.0947 21.4089 21.0427 21.4326 20.9854C21.4563 20.9282 21.4685 20.8668 21.4685 20.8048C21.4685 20.7429 21.4563 20.6815 21.4326 20.6243C21.4089 20.567 21.3741 20.515 21.3303 20.4712L20.8773 20.0181C22.218 18.816 23.9281 18.1061 25.726 18.0052V18.6504C25.726 18.7755 25.7757 18.8955 25.8642 18.984C25.9527 19.0725 26.0727 19.1222 26.1979 19.1222C26.323 19.1222 26.443 19.0725 26.5315 18.984C26.62 18.8955 26.6697 18.7755 26.6697 18.6504V18.0053C28.4615 18.1058 30.1663 18.8112 31.5052 20.0063L31.0403 20.4712C30.9519 20.5597 30.9021 20.6797 30.9021 20.8048C30.9021 20.93 30.9518 21.05 31.0403 21.1385C31.1288 21.227 31.2488 21.2767 31.374 21.2767C31.4991 21.2767 31.6191 21.227 31.7076 21.1385L32.173 20.6732C33.3721 22.0132 34.0802 23.721 34.181 25.5164H33.5358C33.4106 25.5164 33.2906 25.5661 33.2021 25.6546C33.1137 25.7431 33.0639 25.8631 33.0639 25.9883C33.0639 26.1134 33.1137 26.2334 33.2021 26.3219C33.2906 26.4104 33.4106 26.4601 33.5358 26.4601H34.181C34.0801 28.258 33.3702 29.9681 32.1681 31.309ZM13.5799 30.7134H9.30273C9.17759 30.7134 9.05759 30.7631 8.9691 30.8516C8.88062 30.94 8.83091 31.0601 8.83091 31.1852C8.83091 31.3103 8.88062 31.4303 8.9691 31.5188C9.05759 31.6073 9.17759 31.657 9.30273 31.657H13.5799C13.7051 31.657 13.8251 31.6073 13.9135 31.5188C14.002 31.4303 14.0517 31.3103 14.0517 31.1852C14.0517 31.0601 14.002 30.94 13.9135 30.8516C13.8251 30.7631 13.7051 30.7134 13.5799 30.7134ZM27.9911 23.2092C27.8332 22.9108 27.6074 22.6536 27.332 22.4583C27.0566 22.2629 26.7393 22.1349 26.4054 22.0845C26.0716 22.0341 25.7306 22.0627 25.4098 22.1681C25.089 22.2734 24.7974 22.4525 24.5584 22.6909L21.957 25.2924C21.5983 25.6518 21.3779 26.1262 21.3347 26.6321C21.2914 27.138 21.4281 27.6429 21.7205 28.058C22.013 28.4731 22.4425 28.7716 22.9335 28.9011C23.4245 29.0306 23.9454 28.9827 24.4045 28.7659C24.5622 29.0645 24.7878 29.322 25.0632 29.5175C25.3385 29.7131 25.6559 29.8413 25.9898 29.8919C26.3238 29.9424 26.6649 29.9139 26.9858 29.8086C27.3067 29.7033 27.5984 29.5242 27.8375 29.2856L29.1378 27.9852L29.1382 27.9849L29.1384 27.9846L30.4387 26.6842C30.7978 26.3248 31.0185 25.8503 31.062 25.3441C31.1054 24.838 30.9689 24.3327 30.6763 23.9174C30.3838 23.5021 29.9541 23.2033 29.4629 23.0737C28.9716 22.9442 28.4505 22.9921 27.9911 23.2092ZM25.2257 23.3583C25.3381 23.2448 25.4718 23.1547 25.6192 23.093C25.7665 23.0314 25.9246 22.9995 26.0843 22.9991C26.2441 22.9987 26.4023 23.0299 26.5499 23.0909C26.6976 23.1518 26.8317 23.2414 26.9446 23.3543C27.0576 23.4673 27.1471 23.6014 27.2081 23.749C27.269 23.8967 27.3002 24.0549 27.2998 24.2146C27.2994 24.3744 27.2675 24.5324 27.2059 24.6798C27.1442 24.8272 27.0541 24.9609 26.9406 25.0733L25.9736 26.0403L24.2587 24.3253L25.2257 23.3583ZM24.3393 27.6747C24.1117 27.9018 23.8033 28.0294 23.4818 28.0294C23.1603 28.0294 22.8519 27.9018 22.6243 27.6747H22.6242C22.5116 27.5621 22.4223 27.4284 22.3613 27.2812C22.3004 27.1341 22.269 26.9764 22.269 26.8171C22.269 26.6579 22.3004 26.5002 22.3613 26.3531C22.4223 26.2059 22.5116 26.0722 22.6242 25.9596L23.5913 24.9926L25.3062 26.7076L24.3393 27.6747ZM27.1702 28.6183C27.026 28.7625 26.8477 28.868 26.652 28.925C26.4562 28.9821 26.2492 28.9888 26.0501 28.9447C25.851 28.9006 25.6663 28.807 25.513 28.6725C25.3597 28.5381 25.2427 28.3672 25.1729 28.1755L26.3069 27.0415L26.3073 27.0413L26.3075 27.041L26.9172 26.4313L28.1372 27.6513L27.1702 28.6183ZM29.7715 26.0169L28.8046 26.984L27.5846 25.764L27.608 25.7406C27.8088 25.5408 27.9681 25.3032 28.0765 25.0414C28.1849 24.7797 28.2403 24.4991 28.2396 24.2158C28.2396 24.1946 28.2387 24.1735 28.2381 24.1524C28.4882 23.9844 28.7919 23.9156 29.0901 23.9593C29.3882 24.003 29.6594 24.1561 29.8508 24.3888C30.0423 24.6216 30.1402 24.9172 30.1255 25.2182C30.1109 25.5192 29.9847 25.8039 29.7716 26.0169H29.7715Z" fill="white"/>
</svg>
