<svg width="48" height="48" viewBox="0 0 48 48" fill="none" xmlns="http://www.w3.org/2000/svg">
<circle cx="24" cy="24" r="23.25" stroke="white" stroke-width="1.5"/>
<path d="M26.2729 22.7182L21.8786 27.1124L20.0814 25.3138C19.8012 25.0391 19.3525 25.0391 19.0721 25.3138C18.7877 25.5926 18.7831 26.0491 19.0618 26.3335L21.3688 28.6419C21.504 28.7772 21.6874 28.8532 21.8787 28.8532C22.0699 28.8532 22.2532 28.7772 22.3884 28.6419L27.3029 23.7275C27.5816 23.4431 27.577 22.9865 27.2926 22.7078C27.0082 22.4291 26.5517 22.4337 26.2729 22.7182ZM35.0604 13.7866C34.9788 13.3966 34.5966 13.1466 34.2066 13.2281C30.6454 13.9801 26.9319 13.2207 23.9519 11.131C23.7035 10.9563 23.3721 10.9563 23.1237 11.131C20.1438 13.2208 16.4302 13.9803 12.869 13.2281C12.8206 13.218 12.7713 13.2129 12.7218 13.2129C12.3234 13.2126 12.0003 13.5353 12 13.9337V25.4983C12.0024 29.733 14.0411 33.7083 17.4788 36.1812L23.1181 40.2248C23.2404 40.3128 23.3872 40.3602 23.5378 40.36C23.6884 40.3602 23.8352 40.3129 23.9575 40.2249L29.5968 36.1812C33.0345 33.7083 35.0732 29.733 35.0756 25.4983V13.9337C35.0756 13.8843 35.0705 13.835 35.0604 13.7866ZM33.6334 25.4983C33.6318 29.2682 31.8174 32.8074 28.7574 35.0094L23.5378 38.7516L18.3182 35.0094C15.2582 32.8073 13.4438 29.2682 13.4422 25.4983V14.7957C16.9638 15.3217 20.556 14.5375 23.5378 12.5915C26.5199 14.537 30.1119 15.3212 33.6334 14.7957V25.4983Z" fill="white"/>
</svg>
