<svg width="48" height="48" viewBox="0 0 48 48" fill="none" xmlns="http://www.w3.org/2000/svg">
<circle cx="24" cy="24" r="23.25" stroke="white" stroke-width="1.5"/>
<g clip-path="url(#clip0_6_95)">
<path d="M37.508 25.999C37.3754 25.999 37.2482 26.0517 37.1544 26.1454C37.0607 26.2392 37.008 26.3664 37.008 26.499V28.499C37.008 28.6316 37.0607 28.7588 37.1544 28.8526C37.2482 28.9464 37.3754 28.999 37.508 28.999H39.508C39.6406 28.999 39.7678 28.9464 39.8615 28.8526C39.9553 28.7588 40.008 28.6316 40.008 28.499V26.499C40.008 26.3664 39.9553 26.2392 39.8615 26.1454C39.7678 26.0517 39.6406 25.999 39.508 25.999H37.508ZM38.008 26.999H39.008V27.999H38.008V26.999Z" fill="white"/>
<path fill-rule="evenodd" clip-rule="evenodd" d="M8.5 28.999C8.36739 28.999 8.24021 29.0517 8.14645 29.1454C8.05268 29.2392 8 29.3664 8 29.499C8 29.6316 8.05268 29.7588 8.14645 29.8526C8.24021 29.9464 8.36739 29.999 8.5 29.999H10.5C10.6326 29.999 10.7598 29.9464 10.8536 29.8526C10.9473 29.7588 11 29.6316 11 29.499C11 29.3664 10.9473 29.2392 10.8536 29.1454C10.7598 29.0517 10.6326 28.999 10.5 28.999H8.5Z" fill="white"/>
<path d="M8.508 14.999C8.37539 14.999 8.24821 15.0517 8.15444 15.1454C8.06067 15.2392 8.008 15.3664 8.008 15.499V31.499C8.008 31.6316 8.06067 31.7588 8.15444 31.8526C8.24821 31.9464 8.37539 31.999 8.508 31.999H13.568C13.7006 31.999 13.8278 31.9464 13.9215 31.8526C14.0153 31.7588 14.068 31.6316 14.068 31.499C14.068 31.3664 14.0153 31.2392 13.9215 31.1454C13.8278 31.0517 13.7006 30.999 13.568 30.999H9.008V15.999H28.008V30.999H19.44C19.3074 30.999 19.1802 31.0517 19.0864 31.1454C18.9927 31.2392 18.94 31.3664 18.94 31.499C18.94 31.6316 18.9927 31.7588 19.0864 31.8526C19.1802 31.9464 19.3074 31.999 19.44 31.999H28.507C28.6396 31.999 28.7668 31.9464 28.8605 31.8526C28.9543 31.7588 29.007 31.6316 29.007 31.499V15.499C29.007 15.3664 28.9543 15.2392 28.8605 15.1454C28.7668 15.0517 28.6396 14.999 28.507 14.999H8.508Z" fill="white"/>
<path fill-rule="evenodd" clip-rule="evenodd" d="M8.51398 26.999C8.38137 26.999 8.25419 27.0517 8.16042 27.1454C8.06666 27.2392 8.01398 27.3664 8.01398 27.499C8.01398 27.6316 8.06666 27.7588 8.16042 27.8526C8.25419 27.9464 8.38137 27.999 8.51398 27.999H28.336C28.4686 27.999 28.5958 27.9464 28.6895 27.8526C28.7833 27.7588 28.836 27.6316 28.836 27.499C28.836 27.3664 28.7833 27.2392 28.6895 27.1454C28.5958 27.0517 28.4686 26.999 28.336 26.999H8.51398Z" fill="white"/>
<path d="M28.508 16.999C28.3754 16.999 28.2482 17.0517 28.1544 17.1454C28.0607 17.2392 28.008 17.3664 28.008 17.499C28.008 17.6316 28.0607 17.7588 28.1544 17.8526C28.2482 17.9464 28.3754 17.999 28.508 17.999H34.008L39.039 23.749C39.0822 23.7985 39.1347 23.839 39.1936 23.8682C39.2525 23.8974 39.3165 23.9148 39.3821 23.9193C39.4476 23.9237 39.5134 23.9152 39.5757 23.8942C39.638 23.8733 39.6955 23.8403 39.745 23.7971C39.7945 23.7539 39.835 23.7013 39.8642 23.6424C39.8934 23.5835 39.9108 23.5195 39.9152 23.4539C39.9197 23.3884 39.9112 23.3226 39.8902 23.2603C39.8692 23.198 39.8362 23.1405 39.793 23.091L34.611 17.171C34.5641 17.117 34.5062 17.0738 34.4412 17.0441C34.3761 17.0145 34.3055 16.999 34.234 16.999H28.508Z" fill="white"/>
<path d="M28.508 22.999C28.3754 22.999 28.2482 23.0517 28.1544 23.1454C28.0607 23.2392 28.008 23.3664 28.008 23.499V31.5001C28.008 31.6327 28.0607 31.7598 28.1544 31.8536C28.2482 31.9473 28.3754 32.0001 28.508 32.0001H29.885C30.0176 32.0001 30.1448 31.9473 30.2386 31.8536C30.3323 31.7598 30.385 31.6327 30.385 31.5001C30.385 31.3675 30.3323 31.2402 30.2386 31.1464C30.1448 31.0527 30.0176 31.0001 29.885 31.0001H29.008V24.0001H39.008V31.0001H36.055C35.9224 31.0001 35.7952 31.0527 35.7014 31.1464C35.6077 31.2402 35.555 31.3675 35.555 31.5001C35.555 31.6327 35.6077 31.7598 35.7014 31.8536C35.7952 31.9473 35.9224 32.0001 36.055 32.0001H39.508C39.6406 32.0001 39.7678 31.9473 39.8615 31.8536C39.9553 31.7598 40.008 31.6327 40.008 31.5001V23.5001C40.008 23.3675 39.9553 23.2402 39.8615 23.1464C39.7678 23.0527 39.6406 23.0001 39.508 23.0001H28.508V22.999Z" fill="white"/>
<path fill-rule="evenodd" clip-rule="evenodd" d="M11 16.9989C10.9343 16.9999 10.8695 17.0139 10.8093 17.04C10.749 17.0661 10.6945 17.1038 10.6488 17.151C10.6031 17.1982 10.5671 17.2539 10.543 17.3149C10.5188 17.376 10.5069 17.4413 10.508 17.507V25.4989C10.508 25.6315 10.5607 25.7588 10.6544 25.8525C10.7482 25.9463 10.8754 25.9989 11.008 25.9989C11.1406 25.9989 11.2678 25.9463 11.3616 25.8525C11.4553 25.7588 11.508 25.6315 11.508 25.4989V17.507C11.5091 17.44 11.4967 17.3734 11.4715 17.3113C11.4464 17.2492 11.409 17.1927 11.3616 17.1453C11.3142 17.0979 11.2578 17.0606 11.1957 17.0354C11.1336 17.0103 11.067 16.9978 11 16.9989ZM14 16.9989C13.9343 16.9999 13.8695 17.0139 13.8093 17.04C13.749 17.0661 13.6945 17.1038 13.6488 17.151C13.6031 17.1982 13.5671 17.2539 13.543 17.3149C13.5188 17.376 13.5069 17.4413 13.508 17.507V25.4989C13.508 25.6315 13.5607 25.7588 13.6544 25.8525C13.7482 25.9463 13.8754 25.9989 14.008 25.9989C14.1406 25.9989 14.2678 25.9463 14.3616 25.8525C14.4553 25.7588 14.508 25.6315 14.508 25.4989V17.507C14.5091 17.44 14.4967 17.3734 14.4715 17.3113C14.4464 17.2492 14.409 17.1927 14.3616 17.1453C14.3142 17.0979 14.2578 17.0606 14.1957 17.0354C14.1336 17.0103 14.067 16.9978 14 16.9989ZM17 16.9989C16.9343 16.9999 16.8695 17.0139 16.8093 17.04C16.749 17.0661 16.6945 17.1038 16.6488 17.151C16.6031 17.1982 16.5671 17.2539 16.543 17.3149C16.5188 17.376 16.5069 17.4413 16.508 17.507V25.4989C16.508 25.6315 16.5607 25.7588 16.6544 25.8525C16.7482 25.9463 16.8754 25.9989 17.008 25.9989C17.1406 25.9989 17.2678 25.9463 17.3616 25.8525C17.4553 25.7588 17.508 25.6315 17.508 25.4989V17.507C17.5091 17.44 17.4967 17.3734 17.4715 17.3113C17.4464 17.2492 17.409 17.1927 17.3616 17.1453C17.3142 17.0979 17.2578 17.0606 17.1957 17.0354C17.1336 17.0103 17.067 16.9978 17 16.9989ZM20 16.9989C19.9343 16.9999 19.8695 17.0139 19.8093 17.04C19.749 17.0661 19.6945 17.1038 19.6488 17.151C19.6031 17.1982 19.5671 17.2539 19.543 17.3149C19.5188 17.376 19.5069 17.4413 19.508 17.507V25.4989C19.508 25.6315 19.5607 25.7588 19.6544 25.8525C19.7482 25.9463 19.8754 25.9989 20.008 25.9989C20.1406 25.9989 20.2678 25.9463 20.3616 25.8525C20.4553 25.7588 20.508 25.6315 20.508 25.4989V17.507C20.5091 17.44 20.4967 17.3734 20.4715 17.3113C20.4464 17.2492 20.409 17.1927 20.3616 17.1453C20.3142 17.0979 20.2578 17.0606 20.1957 17.0354C20.1336 17.0103 20.067 16.9978 20 16.9989ZM23 16.9989C22.9343 16.9999 22.8695 17.0139 22.8093 17.04C22.749 17.0661 22.6945 17.1038 22.6488 17.151C22.6031 17.1982 22.5671 17.2539 22.543 17.3149C22.5188 17.376 22.5069 17.4413 22.508 17.507V25.4989C22.508 25.6315 22.5607 25.7588 22.6544 25.8525C22.7482 25.9463 22.8754 25.9989 23.008 25.9989C23.1406 25.9989 23.2678 25.9463 23.3616 25.8525C23.4553 25.7588 23.508 25.6315 23.508 25.4989V17.507C23.5091 17.44 23.4967 17.3734 23.4715 17.3113C23.4464 17.2492 23.409 17.1927 23.3616 17.1453C23.3142 17.0979 23.2578 17.0606 23.1957 17.0354C23.1336 17.0103 23.067 16.9978 23 16.9989ZM26 16.9989C25.9343 16.9999 25.8695 17.0139 25.8093 17.04C25.749 17.0661 25.6945 17.1038 25.6488 17.151C25.6031 17.1982 25.5671 17.2539 25.543 17.3149C25.5188 17.376 25.5069 17.4413 25.508 17.507V25.4989C25.508 25.6315 25.5607 25.7588 25.6544 25.8525C25.7482 25.9463 25.8754 25.9989 26.008 25.9989C26.1406 25.9989 26.2678 25.9463 26.3616 25.8525C26.4553 25.7588 26.508 25.6315 26.508 25.4989V17.507C26.5091 17.44 26.4967 17.3734 26.4715 17.3113C26.4464 17.2492 26.409 17.1927 26.3616 17.1453C26.3142 17.0979 26.2578 17.0606 26.1957 17.0354C26.1336 17.0103 26.067 16.9978 26 16.9989Z" fill="white"/>
<path d="M16.508 28.999C15.5804 29.0011 14.6914 29.3705 14.0355 30.0264C13.3795 30.6823 13.0101 31.5714 13.008 32.499C13.008 34.426 14.581 35.999 16.508 35.999C18.435 35.999 20.008 34.426 20.008 32.499C20.008 30.572 18.435 28.999 16.508 28.999ZM16.508 29.999C17.894 29.999 19.008 31.113 19.008 32.499C19.008 33.886 17.894 34.999 16.508 34.999C16.1794 35 15.8538 34.9361 15.55 34.8109C15.2462 34.6856 14.9702 34.5015 14.7379 34.2691C14.5055 34.0367 14.3214 33.7608 14.1961 33.457C14.0709 33.1532 14.0069 32.8276 14.008 32.499C14.008 31.113 15.121 29.999 16.508 29.999ZM33.008 28.999C32.0804 29.0011 31.1914 29.3705 30.5355 30.0264C29.8795 30.6823 29.5101 31.5714 29.508 32.499C29.508 34.426 31.081 35.999 33.008 35.999C34.935 35.999 36.508 34.426 36.508 32.499C36.508 30.572 34.935 28.999 33.008 28.999ZM33.008 29.999C34.394 29.999 35.508 31.113 35.508 32.499C35.508 33.886 34.394 34.999 33.008 34.999C32.6794 35 32.3538 34.9361 32.05 34.8109C31.7462 34.6856 31.4702 34.5015 31.2379 34.2691C31.0055 34.0367 30.8214 33.7608 30.6961 33.457C30.5709 33.1532 30.5069 32.8276 30.508 32.499C30.508 31.113 31.621 29.999 33.008 29.999Z" fill="white"/>
<path d="M16.508 30.999C15.685 30.999 15.008 31.677 15.008 32.499C15.008 33.322 15.685 33.999 16.508 33.999C17.33 33.999 18.008 33.322 18.008 32.499C18.008 31.677 17.33 30.999 16.508 30.999ZM16.508 31.999C16.79 31.999 17.008 32.217 17.008 32.499C17.008 32.781 16.79 32.999 16.508 32.999C16.4421 32.9999 16.3766 32.9876 16.3155 32.9628C16.2545 32.938 16.199 32.9013 16.1523 32.8547C16.1057 32.8081 16.0689 32.7526 16.0441 32.6915C16.0193 32.6304 16.0071 32.5649 16.008 32.499C16.008 32.217 16.226 31.999 16.508 31.999ZM33.008 30.999C32.185 30.999 31.508 31.677 31.508 32.499C31.508 33.322 32.185 33.999 33.008 33.999C33.83 33.999 34.508 33.322 34.508 32.499C34.508 31.677 33.83 30.999 33.008 30.999ZM33.008 31.999C33.29 31.999 33.508 32.217 33.508 32.499C33.508 32.781 33.29 32.999 33.008 32.999C32.9421 32.9999 32.8766 32.9876 32.8155 32.9628C32.7545 32.938 32.699 32.9013 32.6523 32.8547C32.6057 32.8081 32.5689 32.7526 32.5441 32.6915C32.5193 32.6304 32.5071 32.5649 32.508 32.499C32.508 32.217 32.726 31.999 33.008 31.999Z" fill="white"/>
<path fill-rule="evenodd" clip-rule="evenodd" d="M30.5 25.499C30.3674 25.499 30.2402 25.5517 30.1464 25.6454C30.0527 25.7392 30 25.8664 30 25.999C30 26.1316 30.0527 26.2588 30.1464 26.3526C30.2402 26.4464 30.3674 26.499 30.5 26.499H31.514C31.6466 26.499 31.7738 26.4464 31.8676 26.3526C31.9613 26.2588 32.014 26.1316 32.014 25.999C32.014 25.8664 31.9613 25.7392 31.8676 25.6454C31.7738 25.5517 31.6466 25.499 31.514 25.499H30.5Z" fill="white"/>
</g>
<defs>
<clipPath id="clip0_6_95">
<rect width="32" height="32" fill="white" transform="translate(8 10)"/>
</clipPath>
</defs>
</svg>
