<svg width="35" height="34" viewBox="0 0 35 34" fill="none" xmlns="http://www.w3.org/2000/svg">
<path d="M10.798 17.235L10.798 17.235C8.84768 17.5777 7.25 19.3621 7.25 21.25C7.25 23.4556 9.04443 25.25 11.25 25.25H13.5V27.25H11.25C7.94182 27.25 5.25 24.5582 5.25 21.25C5.25 18.6446 7.17968 16.2006 9.76784 15.427L9.87971 15.3936L9.92588 15.2864C11.2536 12.2021 14.1573 10.25 17.5 10.25C21.8224 10.25 25.4014 13.4922 25.932 17.6715L25.9536 17.8419L26.1205 17.8828C27.1546 18.1361 28.0739 18.7285 28.7318 19.5655C29.3897 20.4025 29.7482 21.4358 29.75 22.5004C29.7498 25.1197 27.6193 27.25 25 27.25H21.5V25.25H25C26.5168 25.25 27.75 24.0168 27.75 22.5C27.75 20.9832 26.5168 19.75 25 19.75H24V18.75C24 15.1657 21.0843 12.25 17.5 12.25C14.7577 12.25 12.483 13.9144 11.571 16.5752L11.3791 17.133L10.798 17.235Z" fill="white" stroke="#0E2850" stroke-width="0.5"/>
<path d="M18.75 20.6875H18.5V20.9375V26.2708H16.5V20.9375V20.6875H16.25H12.9866L17.5 14.3876L22.0134 20.6875H18.75Z" fill="white" stroke="#0E2850" stroke-width="0.5"/>
</svg>
